<svg width="20" height="21" viewBox="0 0 20 21" fill="none" xmlns="http://www.w3.org/2000/svg">
<g id="document-text">
<g id="Vector">
<path d="M16.7188 9.39233H11.25C10.7527 9.39233 10.2758 9.19479 9.92417 8.84316C9.57254 8.49153 9.375 8.01462 9.375 7.51733V2.04858C9.375 2.00714 9.35854 1.9674 9.32924 1.9381C9.29993 1.9088 9.26019 1.89233 9.21875 1.89233H5.625C4.96196 1.89233 4.32607 2.15573 3.85723 2.62457C3.38839 3.09341 3.125 3.72929 3.125 4.39233V16.8923C3.125 17.5554 3.38839 18.1913 3.85723 18.6601C4.32607 19.1289 4.96196 19.3923 5.625 19.3923H14.375C15.038 19.3923 15.6739 19.1289 16.1428 18.6601C16.6116 18.1913 16.875 17.5554 16.875 16.8923V9.54858C16.875 9.50714 16.8585 9.4674 16.8292 9.4381C16.7999 9.4088 16.7602 9.39233 16.7188 9.39233ZM13.125 15.6423H6.875C6.70924 15.6423 6.55027 15.5765 6.43306 15.4593C6.31585 15.3421 6.25 15.1831 6.25 15.0173C6.25 14.8516 6.31585 14.6926 6.43306 14.5754C6.55027 14.4582 6.70924 14.3923 6.875 14.3923H13.125C13.2908 14.3923 13.4497 14.4582 13.5669 14.5754C13.6842 14.6926 13.75 14.8516 13.75 15.0173C13.75 15.1831 13.6842 15.3421 13.5669 15.4593C13.4497 15.5765 13.2908 15.6423 13.125 15.6423ZM13.125 12.5173H6.875C6.70924 12.5173 6.55027 12.4515 6.43306 12.3343C6.31585 12.2171 6.25 12.0581 6.25 11.8923C6.25 11.7266 6.31585 11.5676 6.43306 11.4504C6.55027 11.3332 6.70924 11.2673 6.875 11.2673H13.125C13.2908 11.2673 13.4497 11.3332 13.5669 11.4504C13.6842 11.5676 13.75 11.7266 13.75 11.8923C13.75 12.0581 13.6842 12.2171 13.5669 12.3343C13.4497 12.4515 13.2908 12.5173 13.125 12.5173Z" fill="#CAB3FF"/>
<path d="M16.3758 8.00913L10.7582 2.39155C10.7473 2.38069 10.7334 2.3733 10.7183 2.37032C10.7032 2.36733 10.6875 2.36888 10.6733 2.37476C10.659 2.38065 10.6469 2.39061 10.6383 2.4034C10.6297 2.41619 10.6251 2.43123 10.625 2.44663V7.51733C10.625 7.68309 10.6908 7.84207 10.8081 7.95928C10.9253 8.07649 11.0842 8.14233 11.25 8.14233H16.3207C16.3361 8.14227 16.3511 8.13765 16.3639 8.12906C16.3767 8.12047 16.3867 8.1083 16.3926 8.09406C16.3985 8.07983 16.4 8.06417 16.397 8.04906C16.394 8.03395 16.3866 8.02005 16.3758 8.00913Z" fill="#CAB3FF"/>
</g>
</g>
</svg>
