<svg width="24" height="24" viewBox="0 0 24 24" fill="none" xmlns="http://www.w3.org/2000/svg">
<g id="search">
<path id="Vector" fill-rule="evenodd" clip-rule="evenodd" d="M5.8558 3.61739C7.19008 2.72585 8.75876 2.25 10.3635 2.25H10.3635C12.5153 2.25014 14.579 3.105 16.1005 4.62655C17.6221 6.14811 18.4769 8.21174 18.4771 10.3635V10.3636C18.4771 11.9683 18.0012 13.537 17.1097 14.8713C16.9532 15.1054 16.7852 15.3305 16.6064 15.5459L21.5302 20.4697C21.8231 20.7626 21.8231 21.2374 21.5302 21.5303C21.2373 21.8232 20.7624 21.8232 20.4696 21.5303L15.5458 16.6065C14.9234 17.1232 14.2239 17.5467 13.4684 17.8596C11.9858 18.4737 10.3545 18.6344 8.78059 18.3213C7.20671 18.0082 5.76101 17.2355 4.6263 16.1008C3.49159 14.9661 2.71885 13.5204 2.40578 11.9465C2.09272 10.3726 2.25339 8.74122 2.86749 7.25866C3.48159 5.77609 4.52153 4.50892 5.8558 3.61739ZM10.3634 3.75C9.0554 3.75001 7.77675 4.13789 6.68916 4.86459C5.60156 5.5913 4.75388 6.6242 4.25331 7.83268C3.75274 9.04116 3.62177 10.3709 3.87696 11.6538C4.13215 12.9368 4.76203 14.1152 5.68696 15.0401C6.61189 15.965 7.79032 16.5949 9.07323 16.8501C10.3561 17.1053 11.6859 16.9743 12.8944 16.4738C14.1029 15.9732 15.1358 15.1255 15.8625 14.0379C16.5892 12.9503 16.9771 11.6717 16.9771 10.3636M10.3635 3.75C12.1175 3.75012 13.7996 4.44695 15.0399 5.68721C16.2801 6.92748 16.9769 8.6096 16.9771 10.3636" fill="#505059"/>
</g>
</svg>
